<?xml version="1.0"?>
<svg width="1000" height="304.261" xmlns="http://www.w3.org/2000/svg" xmlns:svg="http://www.w3.org/2000/svg">
 <g class="layer">
  <title>Layer 1</title>
  <path d="m0.5,215.01l0,-210.07l36.9,0l0,210.07l-36.9,0zm131.36,-152.39c-47.31,0 -80.05,36.37 -80.05,78.01c0,46.47 35.62,78.48 80.42,78.48c42.52,0 79.41,-31.42 79.41,-78.58c0,-39.66 -30.57,-77.91 -79.78,-77.91zm-0.43,35.59c24.76,0 42.98,19.28 42.98,42.55c0,24.68 -20.09,42.68 -42.32,42.68c-26.25,0 -42.78,-20.81 -42.78,-42.61c0,-23.9 18.66,-42.62 42.12,-42.62zm172.93,-35.59c-47.31,0 -80.05,36.37 -80.05,78.01c0,46.47 35.61,78.48 80.42,78.48c42.52,0 79.41,-31.42 79.41,-78.58c0,-27.77 -12.02,-40.09 -12.02,-40.09l10.23,-3.51l0,-29.95l-52.41,0s-11.37,-4.36 -25.58,-4.36zm-0.44,35.59c24.76,0 42.99,19.28 42.99,42.55c0,24.68 -20.1,42.68 -42.32,42.68c-26.26,0 -42.78,-20.81 -42.78,-42.61c0,-23.9 18.66,-42.62 42.11,-42.62zm42.73,127.07c0,24.68 -20.1,42.82 -42.32,42.82c-26.26,0 -42.85,-21.02 -42.85,-42.82l-37.44,0c0,46.47 35.62,78.48 80.42,78.48c42.52,0 79.42,-31.32 79.42,-78.48l-37.23,0zm52.27,-10.27l0,-148.03l36.9,0l0,148.03l-36.9,0zm72.74,0l0,-114.87l-19.79,0l0,-33.16l19.79,0l0,-45.46l36.9,0l0,45.46l20.32,0l0,33.16l-20.32,0l0,114.87l-36.9,0zm-29.93,-190.07c0,13.49 -10.94,24.43 -24.43,24.43s-24.44,-10.94 -24.44,-24.43c0,-13.5 10.94,-24.44 24.44,-24.44c13.49,0 24.43,10.94 24.43,24.44zm170.11,37.57c-47.54,0 -78.18,36.4 -78.18,79.46c0,44.49 30.74,77.24 78.95,77.24c44.96,0 67.08,-28.08 67.08,-28.08l-24.67,-24.7s-18.62,20.09 -41.94,20.09c-19.45,0 -34.99,-10.85 -40.41,-30.75l114.98,0l0,-10.16c0,-40.55 -23.47,-83.09 -75.81,-83.09l0,-0.01zm-1.17,32.49c17,0 34.38,9.1 38.27,30.82l-77.28,0c3.06,-15.27 16.42,-30.82 39.01,-30.82zm169.28,124.23c-47.67,0 -80.15,-36.31 -80.15,-79.12c0,-44.18 36.71,-77.62 80,-77.62c41.84,0 63.26,29.54 63.26,29.54l-25.74,25.62s-14.91,-19.26 -37.7,-19.26c-25.26,0 -42.53,19.32 -42.53,42.29c0,24.25 18.37,42.86 42.25,42.86c23.15,0 37.95,-19.24 37.95,-19.24l26,25.61s-21.22,29.32 -63.34,29.32zm76.76,-4.11l0,-210.71l36.9,0l0,77.41s14.13,-19.33 44.87,-19.33c38.64,0 61.02,28.72 61.02,65.46l0,87.17l-36.9,0l0,-81.6c0,-24.68 -15.37,-34.92 -32.39,-34.92c-19.39,0 -36.6,11.04 -36.6,36.83l0,79.69l-36.9,0z" fill="#ffffff" id="svg_1"/>
 </g>
</svg>